/* XPM */
static char *pause_24_black[] = {
"24 24 2 1 0 0",
"  c #000000",
"! c None",
"!!!!!     !!!!     !!!!!",
"!!!!      !!!!      !!!!",
"!!!!      !!!!      !!!!",
"!!!!      !!!!      !!!!",
"!!!!      !!!!      !!!!",
"!!!!      !!!!      !!!!",
"!!!!      !!!!      !!!!",
"!!!!      !!!!      !!!!",
"!!!!      !!!!      !!!!",
"!!!!      !!!!      !!!!",
"!!!!      !!!!      !!!!",
"!!!!      !!!!      !!!!",
"!!!!      !!!!      !!!!",
"!!!!      !!!!      !!!!",
"!!!!      !!!!      !!!!",
"!!!!      !!!!      !!!!",
"!!!!      !!!!      !!!!",
"!!!!      !!!!      !!!!",
"!!!!      !!!!      !!!!",
"!!!!      !!!!      !!!!",
"!!!!      !!!!      !!!!",
"!!!!      !!!!      !!!!",
"!!!!      !!!!      !!!!",
"!!!!!     !!!!     !!!!!"
};
