/* XPM */
static char *record_32x32[] = {
"32 32 3 1 0 0",
"  c #000000",
"! c #FFFFFF",
"# c None",
"################################",
"################################",
"################################",
"################################",
"                                ",
"                                ",
"                                ",
" !!!!!!!    !!!!!!!!     !!!!   ",
" !!!!!!!!   !!!!!!!!    !!!!!!  ",
" !!!  !!!   !!!!!!!!   !!!!!!!! ",
" !!    !!!  !!         !!!   !! ",
" !!    !!!  !!        !!!     ! ",
" !!    !!!  !!        !!        ",
" !!    !!   !!        !!        ",
" !!!  !!!   !!!!!!!!  !!        ",
" !!!!!!!    !!!!!!!!  !!        ",
" !!!!!!     !!!!!!!!  !!        ",
" !!  !!     !!        !!        ",
" !!  !!!    !!        !!        ",
" !!   !!    !!        !!        ",
" !!   !!!   !!        !!!     ! ",
" !!   !!!   !!         !!!   !! ",
" !!    !!   !!!!!!!!   !!!!!!!! ",
" !!    !!!  !!!!!!!!    !!!!!!  ",
" !!    !!!  !!!!!!!!     !!!!   ",
"                                ",
"                                ",
"                                ",
"################################",
"################################",
"################################",
"################################"
};
